<?xml version="1.0" standalone="no"?>
<!DOCTYPE svg PUBLIC "-//W3C//DTD SVG 20010904//EN"
 "http://www.w3.org/TR/2001/REC-SVG-20010904/DTD/svg10.dtd">
<svg version="1.0" xmlns="http://www.w3.org/2000/svg"
 width="1280.000000pt" height="656.000000pt" viewBox="0 0 1280.000000 656.000000"
 preserveAspectRatio="xMidYMid meet">
<g transform="translate(0.000000,656.000000) scale(0.100000,-0.100000)"
fill="#000000" stroke="none">
<path d="M5416 6348 c-14 -46 -30 -103 -37 -128 -7 -25 -19 -52 -28 -61 -9 -9
-68 -34 -131 -54 -63 -21 -119 -42 -125 -47 -12 -11 37 -57 135 -125 36 -25
71 -53 78 -61 7 -10 12 -48 12 -101 0 -47 3 -110 6 -139 l7 -52 46 26 c25 15
57 37 71 49 90 82 131 90 275 50 81 -23 135 -31 135 -21 0 2 -18 50 -39 108
-58 153 -59 164 -20 218 44 60 119 182 119 193 0 5 -62 6 -144 2 l-144 -8 -87
117 c-48 64 -91 116 -96 116 -5 0 -19 -37 -33 -82z"/>
<path d="M8194 6299 c-21 -73 -43 -137 -50 -143 -6 -7 -69 -32 -138 -55 -75
-26 -125 -48 -123 -55 2 -6 42 -39 88 -74 46 -34 98 -73 114 -86 l30 -23 3
-129 c2 -71 5 -135 7 -142 5 -15 63 19 135 78 85 70 111 74 259 35 100 -26
131 -30 131 -17 0 5 -17 55 -39 113 -59 158 -59 146 2 236 29 43 66 100 81
127 l28 48 -143 -7 c-113 -5 -147 -4 -160 7 -9 7 -51 59 -93 116 -42 56 -80
102 -85 102 -5 0 -26 -59 -47 -131z"/>
<path d="M3117 6213 c-3 -5 -28 -91 -57 -193 -32 -113 -59 -191 -70 -201 -10
-9 -102 -44 -205 -79 l-186 -63 33 -34 c29 -31 82 -69 249 -181 28 -18 54 -44
59 -58 6 -14 10 -108 10 -209 0 -101 4 -186 9 -190 10 -6 69 35 231 158 56 42
110 77 121 77 11 0 84 -20 162 -44 131 -40 237 -64 237 -53 0 3 -29 87 -65
186 -36 100 -65 190 -65 202 0 11 35 70 78 130 94 135 141 210 142 227 0 14
-18 14 -235 3 -82 -5 -160 -4 -172 0 -12 4 -76 80 -143 169 -66 88 -122 160
-125 160 -2 0 -6 -3 -8 -7z"/>
<path d="M4491 6044 l-83 -96 -57 5 c-188 20 -191 20 -191 6 0 -8 25 -57 55
-109 30 -52 55 -103 55 -113 0 -10 -18 -62 -40 -114 -22 -53 -40 -100 -40
-105 0 -13 69 -9 130 7 102 28 119 23 211 -55 46 -38 89 -70 95 -70 13 0 19
33 28 150 6 87 10 95 64 126 62 35 152 102 152 113 0 5 -46 28 -102 51 -57 23
-109 48 -116 54 -7 7 -24 62 -38 122 -13 59 -28 112 -32 116 -4 4 -45 -35 -91
-88z"/>
<path d="M9371 6053 c-40 -49 -80 -92 -87 -96 -8 -5 -67 -3 -130 3 -64 6 -118
9 -121 7 -5 -6 26 -71 73 -148 19 -31 34 -68 34 -82 0 -13 -18 -68 -40 -121
-22 -53 -40 -98 -40 -101 0 -10 64 -5 144 12 46 9 93 13 109 9 15 -3 54 -31
86 -60 65 -60 97 -80 111 -71 6 3 10 34 11 68 0 34 4 84 8 111 9 55 12 58 141
146 44 30 80 57 80 60 0 4 -48 25 -107 49 -60 24 -113 48 -119 55 -7 6 -24 64
-39 129 -15 64 -30 117 -34 117 -4 0 -40 -39 -80 -87z"/>
<path d="M10485 5953 c-9 -32 -27 -95 -41 -140 l-24 -81 -123 -41 c-163 -55
-161 -53 -112 -97 22 -19 72 -57 111 -84 39 -27 74 -56 78 -66 3 -9 9 -76 13
-150 l6 -133 38 20 c21 10 53 32 71 48 103 90 137 96 283 56 103 -29 140 -32
132 -11 -3 8 -25 70 -48 138 l-43 123 61 90 c58 87 93 147 93 161 0 3 -58 3
-129 -1 -71 -4 -138 -4 -149 -1 -11 4 -57 56 -102 116 -45 61 -86 110 -90 110
-5 0 -16 -26 -25 -57z"/>
<path d="M7147 5713 c-2 -5 4 -62 14 -128 10 -66 18 -129 18 -139 1 -11 -39
-60 -94 -115 -52 -54 -95 -100 -95 -103 0 -11 63 -29 163 -47 58 -11 106 -26
117 -36 11 -10 44 -65 73 -122 28 -56 57 -103 62 -103 6 0 35 48 65 106 30 58
62 112 71 119 8 8 60 24 115 35 111 23 164 38 164 48 0 4 -43 50 -97 104 l-96
97 13 88 c20 138 26 193 22 198 -3 2 -59 -23 -125 -57 -66 -34 -126 -61 -132
-61 -6 0 -66 27 -133 61 -66 34 -123 59 -125 55z"/>
<path d="M11550 5499 l-75 -90 -133 7 -133 6 24 -48 c14 -27 41 -76 61 -108
20 -33 36 -66 36 -74 0 -7 -20 -61 -45 -119 -25 -58 -45 -107 -45 -110 0 -6
70 3 168 23 86 17 105 10 186 -66 48 -44 94 -76 100 -68 2 2 8 54 14 116 12
128 15 135 96 181 28 16 69 45 91 64 l40 35 -35 15 c-19 8 -70 29 -113 47 -42
18 -81 39 -86 49 -4 9 -16 50 -26 91 -22 99 -35 140 -43 140 -4 0 -41 -41 -82
-91z"/>
<path d="M5930 5536 c0 -19 7 -70 15 -113 27 -139 28 -136 -80 -243 -52 -52
-95 -97 -95 -101 0 -9 100 -35 188 -49 39 -7 81 -19 92 -28 11 -10 44 -64 74
-122 29 -57 58 -106 63 -107 5 -2 36 46 67 107 32 61 67 117 79 125 12 7 60
21 106 29 115 22 161 37 161 52 0 7 -33 43 -74 80 -41 37 -85 81 -96 97 -22
29 -22 30 -6 130 28 175 28 177 17 177 -6 0 -62 -27 -124 -60 -63 -33 -121
-60 -130 -60 -10 0 -68 27 -130 60 -63 33 -117 60 -120 60 -4 0 -7 -15 -7 -34z"/>
<path d="M2180 5434 l-83 -96 -51 6 c-160 18 -196 19 -196 4 0 -8 25 -56 55
-107 30 -51 55 -102 55 -113 0 -11 -18 -63 -40 -115 -22 -53 -40 -100 -40
-105 0 -13 55 -10 144 9 44 9 92 14 106 10 14 -4 59 -36 100 -72 41 -36 80
-65 87 -65 14 0 20 33 27 140 2 41 7 82 11 90 3 8 50 44 103 81 53 36 97 71
97 78 0 7 -45 31 -100 53 -55 23 -105 45 -112 50 -6 5 -23 60 -38 123 -15 63
-30 117 -34 120 -5 2 -46 -39 -91 -91z"/>
<path d="M8455 5388 c-20 -87 -92 -430 -107 -508 -18 -95 22 -71 -378 -237
-140 -58 -258 -109 -263 -113 -4 -3 14 -21 40 -40 45 -33 47 -35 23 -38 -29
-5 -51 18 -178 186 -47 62 -89 109 -93 105 -4 -4 -31 -87 -59 -183 -29 -101
-57 -180 -67 -187 -9 -7 -92 -38 -184 -68 -93 -31 -169 -60 -169 -65 0 -13 85
-80 197 -156 74 -49 105 -77 113 -98 13 -37 13 -133 0 -141 -13 -8 -470 15
-496 25 -17 7 -25 25 -38 80 -29 130 -28 135 72 245 48 53 104 120 125 148
l38 52 -33 6 c-18 4 -97 13 -176 19 -79 7 -155 15 -169 19 -21 6 -46 41 -121
174 -53 92 -100 166 -105 164 -6 -2 -44 -79 -84 -173 -40 -93 -80 -174 -88
-180 -8 -6 -90 -26 -183 -44 -92 -18 -176 -36 -187 -40 -18 -7 -10 -18 66 -91
47 -46 114 -109 149 -141 l63 -56 -7 -78 c-3 -43 -12 -84 -19 -91 -8 -8 -93
-15 -272 -23 -414 -17 -698 -39 -1089 -85 -115 -14 -222 -25 -239 -25 -28 0
-29 1 -22 38 11 57 31 99 57 116 12 8 133 51 267 96 247 82 345 123 339 141
-2 6 -51 43 -108 82 -58 40 -105 79 -105 87 0 15 159 70 203 70 24 0 76 -32
177 -111 62 -48 97 -69 113 -69 6 0 11 66 13 158 3 121 8 163 19 177 8 9 48
40 90 68 90 61 170 128 164 138 -2 4 -68 29 -147 54 -78 26 -149 55 -158 64
-9 9 -35 81 -58 161 -23 80 -46 149 -50 153 -4 4 -54 -53 -110 -128 l-102
-136 -170 7 c-93 4 -169 4 -169 0 0 -14 78 -140 130 -210 58 -80 58 -73 2
-229 -19 -55 -41 -101 -48 -104 -7 -2 -61 28 -121 69 l-108 73 -6 140 c-4 77
-7 229 -8 337 0 108 -5 199 -9 202 -4 2 -125 -87 -267 -200 -143 -112 -267
-204 -276 -204 -8 0 -152 43 -320 95 -167 52 -307 95 -311 95 -21 0 0 -68 121
-395 44 -120 81 -229 81 -241 0 -13 -80 -135 -185 -283 -102 -143 -185 -265
-185 -270 0 -18 53 -20 356 -14 l310 6 42 -43 c23 -24 42 -50 42 -56 0 -16
-40 -28 -180 -54 -63 -12 -206 -42 -318 -66 -112 -24 -210 -44 -219 -44 -16 0
-458 427 -485 469 -15 25 -13 42 39 349 30 178 52 326 49 329 -3 3 -135 -63
-295 -146 -159 -83 -298 -151 -308 -151 -11 0 -144 66 -297 146 -153 80 -284
148 -292 151 -10 3 -14 -2 -14 -19 0 -25 33 -228 75 -463 13 -77 25 -152 25
-167 0 -21 -44 -69 -237 -257 -140 -137 -233 -235 -227 -240 19 -18 85 -31
299 -61 280 -39 324 -47 350 -64 26 -17 119 -192 112 -210 -3 -7 -31 -22 -64
-34 -32 -12 -159 -58 -283 -103 -124 -44 -231 -86 -237 -91 -10 -8 -13 -91
-13 -353 l0 -343 -77 -32 c-547 -225 -1128 -491 -1120 -514 2 -6 129 -95 283
-199 153 -103 283 -192 287 -196 12 -12 8 -17 -168 -301 -269 -433 -405 -660
-395 -660 6 0 34 12 62 26 75 38 769 346 857 380 l74 28 47 -51 c75 -81 76
-92 24 -220 -24 -59 -44 -109 -44 -110 0 -9 103 0 144 12 27 8 64 15 82 15 33
0 40 -5 164 -108 29 -23 55 -40 59 -37 5 2 11 50 15 105 4 56 11 112 16 124 4
13 41 44 82 69 80 51 135 94 128 100 -3 2 -52 23 -110 47 -58 24 -110 47 -116
52 -7 5 -17 45 -24 90 -12 73 -11 82 4 93 29 22 668 230 936 306 140 39 261
76 268 82 9 7 12 86 12 333 0 302 1 324 18 333 67 36 781 191 1172 255 242 40
507 76 551 76 l41 0 -6 -37 c-14 -78 6 -66 -285 -169 -18 -6 37 -54 141 -126
43 -29 80 -59 84 -68 3 -8 8 -75 11 -148 3 -72 9 -132 13 -132 9 0 91 56 156
105 62 47 86 50 202 21 55 -15 114 -26 131 -26 l30 0 -38 107 c-61 170 -62
151 24 282 41 63 75 121 75 129 0 11 -24 12 -144 7 l-144 -8 -27 42 c-16 23
-25 44 -22 47 28 29 1359 99 1493 79 48 -7 51 -13 34 -76 -10 -36 -12 -37
-136 -80 -68 -24 -130 -47 -137 -51 -15 -9 27 -47 128 -117 39 -27 77 -57 85
-66 11 -13 16 -51 18 -144 2 -69 5 -132 7 -139 5 -15 63 19 135 78 85 70 111
74 259 35 101 -27 131 -30 131 -16 0 5 -11 37 -24 72 -44 119 -66 191 -59 203
3 6 39 61 80 122 40 61 73 116 73 122 0 9 -37 10 -146 5 -136 -6 -148 -5 -160
12 -8 10 -14 23 -14 28 0 17 574 -15 970 -53 324 -32 762 -92 1052 -145 204
-38 444 -88 451 -95 5 -4 4 -33 -3 -63 l-11 -56 -77 -29 c-42 -16 -129 -46
-192 -67 -63 -21 -119 -41 -125 -46 -13 -12 34 -51 192 -160 72 -50 134 -97
137 -106 4 -8 9 -102 13 -209 4 -130 10 -194 17 -194 17 0 62 31 186 129 71
55 128 93 148 97 41 8 224 -48 251 -77 10 -11 84 -36 186 -64 455 -123 1186
-367 1198 -400 3 -7 14 -60 23 -119 l18 -106 -97 -98 c-53 -53 -97 -101 -97
-105 0 -12 47 -26 153 -47 55 -11 109 -25 120 -33 10 -7 45 -62 76 -121 31
-60 61 -109 66 -109 6 0 35 46 65 103 30 57 67 112 81 123 14 10 77 29 139 42
62 14 118 29 124 35 7 7 -21 41 -87 109 -95 96 -107 114 -87 126 17 10 270
-99 643 -278 97 -47 177 -81 177 -76 0 12 -123 218 -336 559 -179 289 -228
376 -221 393 3 8 119 91 259 185 139 94 267 183 283 196 l30 25 -225 109
c-232 114 -500 235 -700 317 -63 26 -156 65 -206 86 l-91 40 -7 61 c-3 33 -6
188 -6 343 0 214 -3 285 -12 292 -16 13 -459 173 -685 248 -95 31 -175 61
-178 66 -7 10 97 126 188 211 90 84 76 83 533 8 78 -13 204 -13 204 0 0 5 -60
116 -134 247 -156 278 -176 317 -176 337 0 9 53 123 118 253 120 242 168 350
160 358 -4 4 -532 -95 -642 -120 -14 -3 -84 59 -261 231 -134 129 -245 234
-248 234 -5 0 -20 -98 -36 -240 -43 -367 -51 -419 -67 -435 -24 -24 -324 -176
-341 -173 -11 2 -25 30 -40 81 -13 43 -28 77 -33 75 -5 -2 -45 -51 -90 -110
-44 -60 -85 -108 -91 -108 -10 0 -91 163 -124 252 l-18 48 141 232 c140 233
200 343 191 352 -2 3 -119 -8 -259 -24 -392 -44 -398 -44 -417 -29 -9 8 -110
123 -225 257 -115 133 -211 242 -213 242 -2 0 -11 -33 -20 -72z m-273 -1154
c44 -26 86 -57 94 -70 16 -23 43 -254 44 -366 l0 -58 -42 1 c-78 1 -218 25
-232 40 -18 18 -107 262 -113 311 -6 39 4 57 74 146 46 56 73 56 175 -4z m741
-318 c39 -16 96 -77 160 -172 44 -64 48 -74 40 -105 -12 -45 -25 -46 -180 -15
-71 14 -169 32 -220 41 -50 9 -100 23 -110 30 -17 13 -15 16 27 52 25 21 76
67 114 102 92 84 112 91 169 67z m1108 -243 c18 -48 58 -298 49 -307 -6 -6
-58 3 -132 23 -201 53 -188 46 -188 96 0 24 3 51 7 60 8 21 211 155 236 155
10 0 22 -11 28 -27z m-7041 -217 c0 -6 -235 -80 -319 -101 -85 -22 -99 -18
-71 17 26 34 86 52 230 68 58 7 110 13 115 15 15 5 45 6 45 1z m-1432 -2582
c-8 -9 -26 -14 -39 -12 -22 4 -22 6 11 20 40 18 51 15 28 -8z"/>
<path d="M950 5278 c0 -13 9 -77 19 -142 l20 -119 -22 -26 c-12 -15 -57 -60
-99 -100 -43 -40 -78 -77 -78 -81 0 -9 94 -35 195 -55 95 -18 98 -21 167 -158
27 -54 54 -97 60 -95 6 2 33 46 60 98 67 128 76 136 167 155 106 22 191 47
191 56 0 4 -29 33 -64 64 -36 31 -81 76 -101 100 l-36 44 21 117 c21 121 24
164 14 164 -4 0 -57 -27 -119 -60 -62 -33 -123 -60 -135 -60 -13 0 -74 27
-136 60 -62 33 -115 60 -118 60 -3 0 -6 -10 -6 -22z"/>
<path d="M11746 4356 c-20 -68 -36 -128 -36 -134 0 -16 -39 -34 -167 -76 -62
-21 -113 -41 -113 -46 0 -12 58 -60 143 -119 41 -29 78 -60 82 -69 4 -9 9 -77
12 -149 3 -73 9 -133 13 -133 4 0 30 16 56 35 122 88 168 115 198 115 17 0 71
-11 121 -25 79 -22 145 -32 145 -22 0 2 -18 54 -40 116 -22 61 -40 125 -40
142 0 19 15 52 40 88 53 79 100 160 100 172 0 7 -46 8 -144 4 l-144 -8 -87
117 c-48 64 -91 116 -95 116 -4 0 -24 -56 -44 -124z"/>
<path d="M720 4327 l-85 -112 -148 1 c-102 0 -147 -3 -147 -11 0 -6 32 -60 71
-120 68 -104 71 -112 65 -155 -3 -25 -21 -87 -41 -139 -19 -51 -33 -97 -30
-101 5 -9 49 -1 159 29 125 33 116 36 284 -84 35 -25 67 -45 71 -45 4 0 11 60
14 133 3 73 9 139 12 147 3 8 43 41 88 73 80 55 145 113 136 120 -2 2 -61 23
-132 47 -70 24 -131 48 -136 54 -5 6 -26 71 -46 144 -21 72 -41 132 -44 132
-3 0 -44 -51 -91 -113z"/>
<path d="M467 3223 c-2 -5 1 -88 6 -186 5 -98 6 -188 3 -200 -3 -13 -66 -70
-151 -137 -80 -63 -145 -118 -145 -122 0 -14 96 -50 210 -79 141 -36 162 -44
178 -70 8 -12 36 -80 63 -153 71 -186 71 -186 79 -186 9 0 81 104 143 205 74
120 71 118 222 126 151 8 225 16 245 29 11 6 -5 31 -66 105 -123 150 -164 205
-164 222 0 8 18 81 40 161 22 81 43 164 47 185 l6 37 -65 -24 c-36 -14 -116
-45 -178 -70 -63 -25 -121 -46 -130 -46 -8 0 -86 47 -172 105 -87 58 -160 105
-162 105 -3 0 -6 -3 -9 -7z"/>
<path d="M11635 3148 c6 -47 14 -96 45 -273 11 -63 5 -73 -147 -219 -63 -60
-112 -113 -110 -119 5 -15 76 -33 222 -57 71 -11 140 -28 153 -36 15 -10 53
-75 99 -170 42 -87 80 -154 86 -152 7 2 46 71 88 153 43 83 88 158 100 167 14
10 67 24 124 33 119 19 225 43 244 55 11 6 -18 40 -117 135 -73 70 -135 137
-137 149 -3 11 6 88 20 170 23 138 31 216 21 216 -2 0 -76 -38 -164 -85 -89
-47 -168 -85 -177 -85 -9 0 -90 38 -179 85 -90 47 -166 85 -170 85 -4 0 -5
-24 -1 -52z"/>
<path d="M8314 1978 c-22 -24 -57 -65 -79 -92 l-40 -49 -105 7 c-58 4 -115 9
-127 13 -34 8 -29 -11 32 -120 30 -53 55 -106 55 -117 0 -11 -18 -61 -40 -112
-22 -51 -40 -99 -40 -107 0 -16 77 -9 155 15 69 20 89 18 134 -18 23 -18 66
-53 96 -77 31 -24 58 -42 61 -39 2 3 9 52 14 109 5 57 12 112 15 121 4 10 39
39 78 64 86 56 122 86 123 99 1 6 -49 31 -110 56 l-111 45 -29 122 c-17 67
-33 122 -37 122 -3 0 -24 -19 -45 -42z"/>
<path d="M3870 1918 c0 -24 26 -194 35 -237 5 -19 -11 -40 -95 -125 -55 -56
-100 -105 -100 -107 0 -9 65 -26 176 -49 116 -24 115 -23 185 -162 27 -54 53
-98 59 -98 5 0 35 50 66 111 65 128 59 123 237 165 64 15 117 30 117 35 0 4
-33 37 -74 74 -41 36 -86 82 -101 101 l-26 34 15 88 c22 136 29 192 20 192 -4
0 -59 -27 -121 -60 -63 -33 -124 -60 -135 -60 -11 0 -71 27 -133 60 -62 33
-115 60 -119 60 -3 0 -6 -10 -6 -22z"/>
</g>
</svg>
